<svg xmlns="http://www.w3.org/2000/svg" width="256" height="256" viewBox="0 0 100 100">
  <rect width="100" height="100" rx="20"></rect>
  <path
    d="M50.10 83.90L50.10 83.90Q43.20 83.90 36.90 81.40Q30.60 78.90 25.70 74.30L25.70 74.30L32.50 66.40Q36.20 69.70 40.90 71.75Q45.60 73.80 50.80 73.80L50.80 73.80Q56.50 73.80 59.50 71.60Q62.50 69.40 62.50 65.90L62.50 65.90Q62.50 63.70 61.70 62.25Q60.90 60.80 59.45 59.70Q58 58.60 55.95 57.70Q53.90 56.80 51.50 55.80L51.50 55.80L42.60 51.90Q40 50.90 37.50 49.40Q35 47.90 33 45.80Q31.00 43.70 29.80 40.90Q28.60 38.10 28.60 34.50L28.60 34.50Q28.60 30.60 30.30 27.25Q32.00 23.90 35 21.40Q38 18.90 42.15 17.50Q46.30 16.10 51.30 16.10L51.30 16.10Q57.30 16.10 62.75 18.35Q68.20 20.60 72.30 24.40L72.30 24.40L66.30 31.80Q63 29.20 59.35 27.70Q55.70 26.20 50.70 26.20L50.70 26.20Q46 26.20 43.15 28.20Q40.30 30.20 40.30 33.90L40.30 33.90Q40.30 35.80 41.20 37.15Q42.10 38.50 43.65 39.55Q45.20 40.60 47.25 41.40Q49.30 42.20 51.50 43.10L51.50 43.10L60.10 46.80Q63.20 48 65.80 49.60Q68.40 51.20 70.30 53.30Q72.20 55.40 73.25 58.15Q74.30 60.90 74.30 64.50L74.30 64.50Q74.30 68.50 72.65 72Q71 75.50 67.90 78.15Q64.80 80.80 60.30 82.35Q55.80 83.90 50.10 83.90Z" />
  <style>
    rect { fill: #000; }
    path { fill: #fff; }

    @media (prefers-color-scheme: dark) {
      rect { fill: #fff; }
      path { fill: #000; }
    }
  </style>
</svg>
